<?xml version="1.0" encoding="UTF-8" standalone="no"?>
<!DOCTYPE svg PUBLIC "-//W3C//DTD SVG 1.1//EN" "http://www.w3.org/Graphics/SVG/1.1/DTD/svg11.dtd">
<svg width="100%" height="100%" viewBox="0 0 1125 334" version="1.1" xmlns="http://www.w3.org/2000/svg" xmlns:xlink="http://www.w3.org/1999/xlink" xml:space="preserve" xmlns:serif="http://www.serif.com/" style="fill-rule:evenodd;clip-rule:evenodd;stroke-linejoin:round;stroke-miterlimit:1.41421;">
    <g id="图层-1" serif:id="图层 1" transform="matrix(4.16667,0,0,4.16667,0,0)">
        <g transform="matrix(1,0,0,1,94.6641,48.4434)">
            <path d="M0,-35.234C-1.373,-35.033 -2.701,-34.655 -3.954,-34.158L-6.288,-36.57L-9.379,-34.785L-8.472,-31.542C-9.529,-30.699 -10.504,-29.726 -11.345,-28.667L-14.575,-29.589L-16.359,-26.499L-16.359,-26.498L-13.948,-24.166C-14.444,-22.912 -14.803,-21.59 -15.003,-20.216L-18.261,-19.402L-18.261,-15.834L-15.005,-15.019C-14.803,-13.644 -14.444,-12.321 -13.948,-11.067L-16.359,-8.736L-14.575,-5.645L-11.332,-6.552C-10.489,-5.495 -9.511,-4.53 -8.453,-3.689L-9.379,-0.448L-6.288,1.336L-3.956,-1.075C-2.702,-0.579 -1.379,-0.221 -0.005,-0.02L0.811,3.238L4.379,3.238L5.195,-0.02C6.569,-0.22 7.891,-0.579 9.145,-1.075L11.478,1.336L14.569,-0.448L13.662,-3.692C14.718,-4.536 15.694,-5.508 16.535,-6.567L19.765,-5.645L21.549,-8.736L19.139,-11.069C19.635,-12.321 19.994,-13.644 20.194,-15.019L23.452,-15.834L23.452,-19.402L20.183,-20.218C19.983,-21.591 19.635,-22.912 19.139,-24.165L21.549,-26.499L19.765,-29.589L16.522,-28.682C15.679,-29.74 14.705,-30.715 13.646,-31.556L14.569,-34.785L11.478,-36.57L9.145,-34.159C7.891,-34.655 6.569,-35.014 5.195,-35.215L4.379,-38.471L4.379,-38.473L0.811,-38.473L0,-35.234ZM24.548,-17.619C24.548,-5.495 14.719,4.334 2.595,4.334C-9.529,4.334 -19.357,-5.495 -19.357,-17.619C-19.357,-29.74 -9.529,-39.568 2.595,-39.568C14.719,-39.568 24.548,-29.74 24.548,-17.619" style="fill:rgb(35,25,22);fill-rule:nonzero;"/>
        </g>
        <g transform="matrix(1,0,0,1,97.2593,45.5469)">
            <path d="M0,-29.44C-8.117,-29.44 -14.721,-22.836 -14.721,-14.722C-14.721,-6.606 -8.117,-0.002 0,-0.002C8.117,-0.002 14.72,-6.606 14.72,-14.722C14.72,-22.836 8.117,-29.44 0,-29.44M0,0.805C-8.562,0.805 -15.526,-6.161 -15.526,-14.722C-15.526,-23.28 -8.562,-30.245 0,-30.245C8.561,-30.245 15.526,-23.28 15.526,-14.722C15.526,-6.161 8.561,0.805 0,0.805" style="fill:rgb(35,25,22);fill-rule:nonzero;"/>
        </g>
        <g transform="matrix(1,0,0,1,93.4224,36.5263)">
            <path d="M0,-11.37C-1.075,-11.263 -1.343,-10.546 -1.343,-9.794L-1.343,-8.002C-1.343,-7.342 -1.308,-6.573 0,-6.466L0,-5.426C-1.146,-5.337 -1.343,-4.567 -1.343,-3.742L-1.343,-1.431C-1.343,-0.786 -1.2,-0.105 0,-0.052L0,0.987L-0.573,0.987C-1.845,0.987 -2.974,1.04 -4.12,0.395C-5.249,-0.232 -5.804,-1.235 -5.804,-2.506C-5.804,-4.745 -4.227,-5.623 -2.239,-5.946L-2.239,-5.981C-3.977,-6.249 -5.625,-7.164 -5.625,-9.131C-5.625,-10.403 -4.979,-11.334 -3.869,-11.89C-2.83,-12.391 -1.683,-12.41 -0.556,-12.41L0,-12.41L0,-11.37Z" style="fill:rgb(35,25,22);fill-rule:nonzero;"/>
        </g>
        <g transform="matrix(1,0,0,1,99.6841,36.3872)">
            <path d="M0,-11.144L-0.001,0.001C0.068,0.029 0.145,0.057 0.24,0.087C0.471,0.159 0.63,0.32 0.63,0.57C0.63,1.091 0.188,1.126 0.064,1.126L-4.851,1.126C-4.975,1.126 -5.416,1.091 -5.416,0.57C-5.416,0.32 -5.257,0.159 -5.028,0.087C-4.935,0.058 -4.858,0.03 -4.797,0.002L-4.791,0L-4.791,-11.144C-4.853,-11.172 -4.932,-11.201 -5.028,-11.231C-5.257,-11.303 -5.416,-11.464 -5.416,-11.715C-5.416,-12.234 -4.975,-12.27 -4.851,-12.27L0.064,-12.27C0.188,-12.27 0.63,-12.234 0.63,-11.715C0.63,-11.464 0.471,-11.303 0.24,-11.231C0.145,-11.201 0.068,-11.172 0,-11.144" style="fill:rgb(35,25,22);fill-rule:nonzero;"/>
        </g>
        <g transform="matrix(1,0,0,1,101.159,37.5667)">
            <path d="M0,-13.45L0.556,-13.45C1.685,-13.45 2.831,-13.431 3.87,-12.93C4.98,-12.375 5.625,-11.443 5.625,-10.171C5.625,-8.204 3.977,-7.29 2.239,-7.021L2.239,-6.986C4.228,-6.663 5.804,-5.786 5.804,-3.547C5.804,-2.275 5.249,-1.272 4.12,-0.645C2.974,0 1.845,-0.054 0.573,-0.054L0,-0.054L0,-1.093C1.2,-1.146 1.343,-1.826 1.343,-2.471L1.343,-4.783C1.343,-5.607 1.146,-6.377 0,-6.467L0,-7.506C1.309,-7.613 1.343,-8.382 1.343,-9.043L1.343,-10.834C1.343,-11.587 1.076,-12.303 0,-12.41L0,-13.45Z" style="fill:rgb(35,25,22);fill-rule:nonzero;"/>
        </g>
        <g transform="matrix(1,0,0,1,20.6475,16.8965)">
            <path d="M0,25.313C4.527,25.589 6.72,23.943 6.585,20.374C6.72,16.669 4.527,14.956 0,15.229L-6.38,15.229L-6.38,25.313L0,25.313ZM0,8.849C3.566,8.849 5.351,7.409 5.351,4.528C5.351,1.512 3.566,0.001 0,0.001L-6.38,0.001L-6.38,8.849L0,8.849ZM-14.611,31.692L-14.611,-6.379L-0.206,-6.379C8.572,-6.379 13.171,-3.086 13.583,3.499C13.444,7.48 11.18,10.222 6.791,11.73L6.791,11.936C12.277,13.309 15.09,16.602 15.229,21.814C14.817,27.988 9.672,31.281 -0.206,31.692L-14.611,31.692Z" style="fill:rgb(35,25,22);fill-rule:nonzero;"/>
        </g>
        <g transform="matrix(1,0,0,1,61.8061,24.9232)">
            <path d="M0,9.26L-5.145,-6.997L-5.351,-6.997L-10.907,9.26L0,9.26ZM-23.667,23.666L-9.878,-14.406L-0.206,-14.406L13.171,23.666L4.939,23.666L2.058,15.64L-12.965,15.64L-15.846,23.666L-23.667,23.666Z" style="fill:rgb(35,25,22);fill-rule:nonzero;"/>
        </g>
        <g transform="matrix(1,0,0,1,133.674,32.125)">
            <path d="M0,-5.145L12.759,-21.608L22.226,-21.608L8.232,-4.527L23.46,16.463L13.376,16.463L0,-2.881L0,16.463L-8.231,16.463L-8.231,-21.608L0,-21.608L0,-5.145Z" style="fill:rgb(35,25,22);fill-rule:nonzero;"/>
        </g>
        <g transform="matrix(1,0,0,1,160.632,10.5164)">
            <path d="M0,38.072L0,0L24.489,0L24.489,6.38L8.026,6.38L8.026,15.435L23.461,15.435L23.461,21.814L8.026,21.814L8.026,38.072L0,38.072Z" style="fill:rgb(35,25,22);fill-rule:nonzero;"/>
        </g>
        <g transform="matrix(-1,-0,0,1,402.34,-119.856)">
            <rect x="204.665" y="130.372" width="8.231" height="38.072" style="fill:rgb(35,25,22);"/>
        </g>
        <g transform="matrix(1,0,0,1,212.081,32.125)">
            <path d="M0,-5.145L6.791,-5.145C10.631,-5.145 12.554,-6.926 12.554,-10.496C12.554,-13.788 10.631,-15.364 6.791,-15.229L0,-15.229L0,-5.145ZM0,16.463L-8.231,16.463L-8.231,-21.608L8.026,-21.608C16.67,-21.47 21.059,-18.177 21.197,-11.73C21.059,-6.791 18.451,-3.705 13.377,-2.47L13.377,-2.264C17.628,-2.125 19.892,0.688 20.168,6.174C20.303,6.724 20.374,7.135 20.374,7.409C20.785,11.936 21.471,14.955 22.432,16.463L13.583,16.463C12.76,13.171 12.277,9.743 12.142,6.174C11.865,2.881 10.701,1.235 8.644,1.235L0,1.235L0,16.463Z" style="fill:rgb(35,25,22);fill-rule:nonzero;"/>
        </g>
        <g transform="matrix(1,0,0,1,238.835,48.5887)">
            <path d="M0,-38.072L25.519,-38.072L25.519,-31.693L8.231,-31.693L8.231,-22.843L24.283,-22.843L24.283,-16.464L8.231,-16.464L8.231,-6.38L26.136,-6.38L26.136,0L0,0L0,-38.072Z" style="fill:rgb(35,25,22);fill-rule:nonzero;"/>
        </g>
        <g transform="matrix(1,0,0,1,13.8076,66.4483)">
            <path d="M0,-6.316C-0.055,-7.846 -0.875,-8.613 -2.461,-8.613C-4.048,-8.503 -4.868,-7.846 -4.922,-6.644C-5.032,-5.496 -4.102,-4.784 -2.133,-4.511C-2.079,-4.511 -1.942,-4.483 -1.723,-4.429C1.832,-3.718 3.581,-2.323 3.527,-0.246C3.472,2.927 1.312,4.566 -2.953,4.676C-6.891,4.676 -8.833,3.009 -8.777,-0.328L-5.496,-0.328C-5.496,1.423 -4.649,2.352 -2.953,2.461C-0.984,2.408 0.027,1.751 0.082,0.493C0.082,-0.545 -0.875,-1.257 -2.789,-1.64C-3.063,-1.694 -3.254,-1.749 -3.363,-1.804C-6.7,-2.569 -8.367,-3.964 -8.367,-5.988C-8.203,-9.105 -6.099,-10.773 -2.051,-10.992C1.23,-10.828 2.953,-9.269 3.117,-6.316L0,-6.316Z" style="fill:rgb(35,25,22);fill-rule:nonzero;"/>
        </g>
        <g transform="matrix(1,0,0,1,32.835,64.3982)">
            <path d="M0,-2.051L5.086,-8.613L8.859,-8.613L3.281,-1.805L9.352,6.562L5.332,6.562L0,-1.149L0,6.562L-3.281,6.562L-3.281,-8.613L0,-8.613L0,-2.051Z" style="fill:rgb(35,25,22);fill-rule:nonzero;"/>
        </g>
        <g transform="matrix(1,0,0,1,62.6489,61.5262)">
            <path d="M0,3.692L-2.051,-2.788L-2.133,-2.788L-4.348,3.692L0,3.692ZM-9.434,9.434L-3.938,-5.742L-0.082,-5.742L5.25,9.434L1.969,9.434L0.82,6.235L-5.168,6.235L-6.316,9.434L-9.434,9.434Z" style="fill:rgb(35,25,22);fill-rule:nonzero;"/>
        </g>
        <g transform="matrix(1,0,0,1,79.0923,70.9606)">
            <path d="M0,-15.176L12.305,-15.176L12.305,-12.633L7.793,-12.633L7.793,0L4.512,0L4.512,-12.633L0,-12.633L0,-15.176Z" style="fill:rgb(35,25,22);fill-rule:nonzero;"/>
        </g>
        <g transform="matrix(1,0,0,1,104.723,70.9606)">
            <path d="M0,-15.176L10.172,-15.176L10.172,-12.633L3.281,-12.633L3.281,-9.106L9.68,-9.106L9.68,-6.563L3.281,-6.563L3.281,-2.543L10.418,-2.543L10.418,0L0,0L0,-15.176Z" style="fill:rgb(35,25,22);fill-rule:nonzero;"/>
        </g>
        <g transform="matrix(1,0,0,1,134.497,58.3274)">
            <path d="M0,10.09C1.805,10.2 2.679,9.544 2.625,8.121C2.679,6.645 1.805,5.962 0,6.07L-2.543,6.07L-2.543,10.09L0,10.09ZM0,3.528C1.421,3.528 2.133,2.953 2.133,1.805C2.133,0.603 1.421,0 0,0L-2.543,0L-2.543,3.528L0,3.528ZM-5.824,12.633L-5.824,-2.543L-0.082,-2.543C3.417,-2.543 5.25,-1.23 5.414,1.395C5.359,2.982 4.457,4.075 2.707,4.676L2.707,4.758C4.894,5.305 6.015,6.618 6.07,8.695C5.906,11.156 3.855,12.469 -0.082,12.633L-5.824,12.633Z" style="fill:rgb(35,25,22);fill-rule:nonzero;"/>
        </g>
        <g transform="matrix(1,0,0,1,155.492,63.1675)">
            <path d="M0,0.246C0,3.911 1.284,5.742 3.855,5.742C6.37,5.742 7.629,3.911 7.629,0.246C7.629,-3.472 6.37,-5.332 3.855,-5.332C1.284,-5.332 0,-3.472 0,0.246M-3.445,0.246C-3.281,-4.949 -0.849,-7.601 3.855,-7.711C8.503,-7.601 10.91,-4.949 11.074,0.246C10.91,5.278 8.503,7.847 3.855,7.957C-0.902,7.847 -3.336,5.278 -3.445,0.246" style="fill:rgb(35,25,22);fill-rule:nonzero;"/>
        </g>
        <g transform="matrix(1,0,0,1,186.086,61.5262)">
            <path d="M0,3.692L-2.051,-2.788L-2.133,-2.788L-4.348,3.692L0,3.692ZM-9.434,9.434L-3.938,-5.742L-0.082,-5.742L5.25,9.434L1.968,9.434L0.82,6.235L-5.168,6.235L-6.316,9.434L-9.434,9.434Z" style="fill:rgb(35,25,22);fill-rule:nonzero;"/>
        </g>
        <g transform="matrix(1,0,0,1,205.851,64.3982)">
            <path d="M0,-2.051L2.707,-2.051C4.237,-2.051 5.004,-2.761 5.004,-4.184C5.004,-5.496 4.237,-6.124 2.707,-6.071L0,-6.071L0,-2.051ZM0,6.562L-3.281,6.562L-3.281,-8.613L3.199,-8.613C6.645,-8.558 8.395,-7.246 8.449,-4.676C8.395,-2.707 7.354,-1.477 5.332,-0.985L5.332,-0.903C7.026,-0.847 7.929,0.274 8.039,2.461C8.093,2.68 8.121,2.844 8.121,2.953C8.285,4.758 8.559,5.961 8.941,6.562L5.414,6.562C5.086,5.25 4.894,3.884 4.84,2.461C4.729,1.148 4.266,0.492 3.445,0.492L0,0.492L0,6.562Z" style="fill:rgb(35,25,22);fill-rule:nonzero;"/>
        </g>
        <g transform="matrix(1,0,0,1,230.169,58.3274)">
            <path d="M0,10.09L1.723,10.09C4.729,10.2 6.206,8.531 6.152,5.086C6.206,1.587 4.729,-0.109 1.723,0L0,0L0,10.09ZM-3.199,-2.543L1.969,-2.543C7,-2.488 9.543,0.055 9.598,5.086C9.543,10.063 7,12.579 1.969,12.633L-3.199,12.633L-3.199,-2.543Z" style="fill:rgb(35,25,22);fill-rule:nonzero;"/>
        </g>
        <g transform="matrix(1,0,0,1,260.681,66.4483)">
            <path d="M0,-6.316C-0.055,-7.846 -0.875,-8.613 -2.461,-8.613C-4.048,-8.503 -4.868,-7.846 -4.922,-6.644C-5.032,-5.496 -4.102,-4.784 -2.133,-4.511C-2.079,-4.511 -1.941,-4.483 -1.723,-4.429C1.832,-3.718 3.581,-2.323 3.527,-0.246C3.473,2.927 1.312,4.566 -2.953,4.676C-6.891,4.676 -8.832,3.009 -8.777,-0.328L-5.496,-0.328C-5.496,1.423 -4.648,2.352 -2.953,2.461C-0.984,2.408 0.027,1.751 0.082,0.493C0.082,-0.545 -0.875,-1.257 -2.789,-1.64C-3.063,-1.694 -3.254,-1.749 -3.363,-1.804C-6.699,-2.569 -8.367,-3.964 -8.367,-5.988C-8.203,-9.105 -6.099,-10.773 -2.051,-10.992C1.23,-10.828 2.953,-9.269 3.117,-6.316L0,-6.316Z" style="fill:rgb(35,25,22);fill-rule:nonzero;"/>
        </g>
    </g>
</svg>
